<svg width="17" height="17" viewBox="0 0 17 17" fill="none" xmlns="http://www.w3.org/2000/svg">
<g clip-path="url(#clip0_913_2700)">
<path d="M10.75 8.5C10.75 8.94501 10.618 9.38002 10.3708 9.75003C10.1236 10.12 9.77217 10.4084 9.36104 10.5787C8.94991 10.749 8.4975 10.7936 8.06105 10.7068C7.62459 10.6199 7.22368 10.4057 6.90901 10.091C6.59434 9.77632 6.38005 9.37541 6.29323 8.93895C6.20642 8.5025 6.25098 8.0501 6.42127 7.63896C6.59157 7.22783 6.87996 6.87643 7.24997 6.62919C7.61998 6.38196 8.05499 6.25 8.5 6.25C9.09674 6.25 9.66903 6.48705 10.091 6.90901C10.5129 7.33097 10.75 7.90326 10.75 8.5Z" stroke="#004BFE" stroke-linecap="round" stroke-linejoin="round"/>
<path d="M13.882 10.6819C13.7851 10.9013 13.7562 11.1448 13.799 11.3807C13.8417 11.6167 13.9543 11.8345 14.122 12.0059L14.166 12.0499C14.4389 12.3229 14.5922 12.693 14.5922 13.0789C14.5922 13.4649 14.4389 13.835 14.166 14.1079C13.8931 14.3809 13.5229 14.5342 13.137 14.5342C12.751 14.5342 12.3809 14.3809 12.108 14.1079L12.064 14.0639C11.8939 13.8995 11.6794 13.7885 11.4469 13.7447C11.2144 13.701 10.9742 13.7263 10.756 13.8176C10.5377 13.9089 10.351 14.0621 10.219 14.2584C10.0869 14.4547 10.0153 14.6854 10.013 14.9219V15.0459C10.0031 15.4251 9.84545 15.7854 9.57376 16.05C9.30207 16.3147 8.93778 16.4628 8.55849 16.4628C8.17921 16.4628 7.81492 16.3147 7.54323 16.05C7.27154 15.7854 7.11394 15.4251 7.10399 15.0459V14.9799C7.09876 14.739 7.02107 14.5051 6.88106 14.3089C6.74104 14.1127 6.54518 13.9632 6.31899 13.8799C6.09959 13.7831 5.85619 13.7541 5.62019 13.7969C5.38419 13.8397 5.16643 13.9522 4.99499 14.1199L4.95099 14.1639C4.67809 14.4369 4.30794 14.5902 3.92199 14.5902C3.53604 14.5902 3.1659 14.4369 2.89299 14.1639C2.62009 13.891 2.46677 13.5209 2.46677 13.1349C2.46677 12.749 2.62009 12.3789 2.89299 12.1059L2.93699 12.0619C3.10143 11.8919 3.2124 11.6773 3.25619 11.4448C3.29998 11.2124 3.27466 10.9722 3.18336 10.7539C3.09206 10.5357 2.9388 10.349 2.74251 10.2169C2.54623 10.0849 2.31555 10.0133 2.07899 10.0109H1.95499C1.76078 10.016 1.56751 9.98218 1.38659 9.91138C1.20566 9.84057 1.04076 9.73425 0.901587 9.59868C0.762419 9.46312 0.65181 9.30105 0.576287 9.12205C0.500763 8.94304 0.461853 8.75073 0.461853 8.55645C0.461853 8.36216 0.500763 8.16985 0.576287 7.99084C0.65181 7.81184 0.762419 7.64977 0.901587 7.51421C1.04076 7.37864 1.20566 7.27232 1.38659 7.20151C1.56751 7.13071 1.76078 7.09685 1.95499 7.10194H2.01999C2.26098 7.09671 2.4948 7.01902 2.691 6.87901C2.8872 6.73899 3.03669 6.54313 3.11999 6.31694C3.21689 6.09754 3.24581 5.85414 3.20303 5.61814C3.16025 5.38214 3.04773 5.16438 2.87999 4.99294L2.83599 4.94894C2.69339 4.81562 2.57907 4.65496 2.49985 4.47654C2.42062 4.29812 2.37812 4.10557 2.37486 3.91038C2.3716 3.71518 2.40765 3.52133 2.48088 3.34036C2.5541 3.15939 2.66299 2.99501 2.80106 2.857C2.93914 2.71899 3.10358 2.61018 3.28458 2.53704C3.46559 2.46391 3.65946 2.42795 3.85465 2.4313C4.04985 2.43466 4.24237 2.47726 4.42075 2.55657C4.59914 2.63588 4.75974 2.75027 4.89299 2.89294L4.93699 2.93694C5.10843 3.10468 5.32619 3.2172 5.56219 3.25998C5.79819 3.30276 6.04159 3.27384 6.26099 3.17694H6.31899C6.53433 3.08459 6.71792 2.93121 6.84711 2.73574C6.9763 2.54027 7.04544 2.31125 7.04599 2.07694V1.95494C7.05594 1.57579 7.21354 1.2155 7.48523 0.950848C7.75692 0.686191 8.12121 0.538086 8.50049 0.538086C8.87978 0.538086 9.24407 0.686191 9.51576 0.950848C9.78745 1.2155 9.94505 1.57579 9.95499 1.95494V2.01994C9.95732 2.2565 10.0289 2.48718 10.161 2.68346C10.293 2.87975 10.4797 3.03301 10.698 3.12431C10.9162 3.21561 11.1564 3.24093 11.3889 3.19714C11.6214 3.15335 11.8359 3.04238 12.006 2.87794L12.05 2.83394C12.1851 2.69881 12.3455 2.59162 12.5221 2.51849C12.6987 2.44536 12.8879 2.40772 13.079 2.40772C13.2701 2.40772 13.4593 2.44536 13.6359 2.51849C13.8124 2.59162 13.9729 2.69881 14.108 2.83394C14.2431 2.96908 14.3503 3.1295 14.4234 3.30605C14.4966 3.48261 14.5342 3.67184 14.5342 3.86294C14.5342 4.05405 14.4966 4.24328 14.4234 4.41984C14.3503 4.59639 14.2431 4.75681 14.108 4.89194L14.064 4.93594C13.8963 5.10738 13.7837 5.32514 13.741 5.56114C13.6982 5.79714 13.7271 6.04054 13.824 6.25994V6.31794C13.9163 6.53328 14.0697 6.71687 14.2652 6.84606C14.4607 6.97525 14.6897 7.04439 14.924 7.04494H15.048C15.4271 7.05489 15.7874 7.21249 16.0521 7.48418C16.3167 7.75587 16.4649 8.12016 16.4649 8.49944C16.4649 8.87873 16.3167 9.24302 16.0521 9.51471C15.7874 9.7864 15.4271 9.944 15.048 9.95395H14.98C14.7457 9.9545 14.5167 10.0236 14.3212 10.1528C14.1257 10.282 13.9723 10.4656 13.88 10.6809L13.882 10.6819Z" stroke="#004BFE" stroke-linecap="round" stroke-linejoin="round"/>
</g>
<defs>
<clipPath id="clip0_913_2700">
<rect width="17" height="17" fill="white"/>
</clipPath>
</defs>
</svg>
