<svg width="18" height="21" viewBox="0 0 18 21" fill="none" xmlns="http://www.w3.org/2000/svg">
<path fill-rule="evenodd" clip-rule="evenodd" d="M11.9 0.666992H6.2V2.56699H11.9V0.666992ZM8.1 13.017H10V7.31699H8.1V13.017ZM15.7285 6.73749L17.0775 5.38849C16.669 4.90399 16.2225 4.44799 15.738 4.04899L14.389 5.39799C12.9165 4.21999 11.064 3.51699 9.05 3.51699C4.3285 3.51699 0.5 7.34549 0.5 12.067C0.5 16.7885 4.319 20.617 9.05 20.617C13.781 20.617 17.6 16.7885 17.6 12.067C17.6 10.053 16.897 8.20049 15.7285 6.73749ZM9.05 18.717C5.3735 18.717 2.4 15.7435 2.4 12.067C2.4 8.3905 5.3735 5.41699 9.05 5.41699C12.7265 5.41699 15.7 8.3905 15.7 12.067C15.7 15.7435 12.7265 18.717 9.05 18.717Z" fill="white"/>
</svg>
